<mxfile host="app.diagrams.net" modified="2024-03-07T07:43:56.275Z" agent="Mozilla/5.0 (Windows NT 10.0; Win64; x64; rv:123.0) Gecko/20100101 Firefox/123.0" etag="3HF2mhTy0M4bttSid3Wi" version="24.0.1" type="github" pages="2">
  <diagram name="第 1 页" id="F_FN7IBZuOVjXzTydqT_">
    <mxGraphModel dx="3114" dy="1826" grid="1" gridSize="10" guides="1" tooltips="1" connect="1" arrows="1" fold="1" page="0" pageScale="1" pageWidth="4681" pageHeight="3300" math="0" shadow="0">
      <root>
        <mxCell id="0" />
        <mxCell id="1" parent="0" />
        <mxCell id="BfXzmcUI7B5nAFYZt8X8-2" value="Static Structure And Database " style="rounded=1;whiteSpace=wrap;html=1;fontSize=16;fillColor=#fff2cc;strokeColor=#d6b656;" parent="1" vertex="1">
          <mxGeometry x="-490" y="-450" width="240" height="60" as="geometry" />
        </mxCell>
        <mxCell id="BfXzmcUI7B5nAFYZt8X8-4" value="Class-level Execution" style="rounded=1;whiteSpace=wrap;html=1;fontSize=16;fillColor=#f8cecc;strokeColor=#b85450;" parent="1" vertex="1">
          <mxGeometry x="-490" y="-250" width="240" height="60" as="geometry" />
        </mxCell>
        <mxCell id="BfXzmcUI7B5nAFYZt8X8-5" value="Method-level Execution" style="rounded=1;whiteSpace=wrap;html=1;fontSize=16;fillColor=#f8cecc;strokeColor=#b85450;" parent="1" vertex="1">
          <mxGeometry x="-490" y="-340" width="240" height="60" as="geometry" />
        </mxCell>
        <mxCell id="BfXzmcUI7B5nAFYZt8X8-7" value="" style="rounded=0;whiteSpace=wrap;html=1;fontSize=16;shadow=1;fillColor=none;dashed=1;" parent="1" vertex="1">
          <mxGeometry x="-505" y="-360" width="270" height="200" as="geometry" />
        </mxCell>
        <mxCell id="BfXzmcUI7B5nAFYZt8X8-8" value="" style="shape=flexArrow;endArrow=classic;html=1;rounded=0;fontSize=12;startSize=8;endSize=15.77;curved=1;width=59;fillColor=#dae8fc;strokeColor=#6c8ebf;" parent="1" edge="1">
          <mxGeometry width="50" height="50" relative="1" as="geometry">
            <mxPoint x="-710" y="-250" as="sourcePoint" />
            <mxPoint x="-510" y="-250" as="targetPoint" />
          </mxGeometry>
        </mxCell>
        <mxCell id="BfXzmcUI7B5nAFYZt8X8-10" value="Dynamic Analysis" style="edgeLabel;html=1;align=center;verticalAlign=middle;resizable=0;points=[];fontSize=16;rotation=0;" parent="BfXzmcUI7B5nAFYZt8X8-8" vertex="1" connectable="0">
          <mxGeometry x="-0.6448" y="2" relative="1" as="geometry">
            <mxPoint x="49" y="2" as="offset" />
          </mxGeometry>
        </mxCell>
        <mxCell id="BfXzmcUI7B5nAFYZt8X8-13" value="单体架构" style="rounded=0;whiteSpace=wrap;html=1;fontSize=16;fillColor=#d5e8d4;strokeColor=#82b366;" parent="1" vertex="1">
          <mxGeometry x="-820" y="-370" width="70" height="260" as="geometry" />
        </mxCell>
        <mxCell id="BfXzmcUI7B5nAFYZt8X8-14" value="" style="shape=flexArrow;endArrow=classic;html=1;rounded=0;fontSize=12;startSize=8;endSize=15.77;curved=1;width=59;fillColor=#dae8fc;strokeColor=#6c8ebf;" parent="1" edge="1">
          <mxGeometry width="50" height="50" relative="1" as="geometry">
            <mxPoint x="-730" y="-350" as="sourcePoint" />
            <mxPoint x="-550" y="-430" as="targetPoint" />
          </mxGeometry>
        </mxCell>
        <mxCell id="BfXzmcUI7B5nAFYZt8X8-15" value="StaticAnalysis" style="edgeLabel;html=1;align=center;verticalAlign=middle;resizable=0;points=[];fontSize=16;rotation=-25;" parent="BfXzmcUI7B5nAFYZt8X8-14" vertex="1" connectable="0">
          <mxGeometry x="-0.6448" y="2" relative="1" as="geometry">
            <mxPoint x="39" y="-14" as="offset" />
          </mxGeometry>
        </mxCell>
        <mxCell id="BfXzmcUI7B5nAFYZt8X8-20" value="" style="shape=flexArrow;endArrow=classic;html=1;rounded=0;fontSize=12;startSize=8;endSize=15.77;curved=1;width=59;fillColor=#dae8fc;strokeColor=#6c8ebf;" parent="1" edge="1">
          <mxGeometry width="50" height="50" relative="1" as="geometry">
            <mxPoint x="-720" y="-120" as="sourcePoint" />
            <mxPoint x="-570" y="-60" as="targetPoint" />
          </mxGeometry>
        </mxCell>
        <mxCell id="BfXzmcUI7B5nAFYZt8X8-21" value="StaticAnalysis" style="edgeLabel;html=1;align=center;verticalAlign=middle;resizable=0;points=[];fontSize=16;rotation=20;" parent="BfXzmcUI7B5nAFYZt8X8-20" vertex="1" connectable="0">
          <mxGeometry x="-0.6448" y="2" relative="1" as="geometry">
            <mxPoint x="44" y="14" as="offset" />
          </mxGeometry>
        </mxCell>
        <mxCell id="BfXzmcUI7B5nAFYZt8X8-22" value="Class Names" style="rounded=1;whiteSpace=wrap;html=1;fontSize=16;fillColor=#e1d5e7;strokeColor=#9673a6;" parent="1" vertex="1">
          <mxGeometry x="-560" y="-100" width="155" height="60" as="geometry" />
        </mxCell>
        <mxCell id="BfXzmcUI7B5nAFYZt8X8-25" value="" style="shape=curlyBracket;whiteSpace=wrap;html=1;rounded=1;flipH=1;labelPosition=right;verticalLabelPosition=middle;align=left;verticalAlign=middle;fontSize=16;" parent="1" vertex="1">
          <mxGeometry x="-210" y="-430" width="20" height="170" as="geometry" />
        </mxCell>
        <mxCell id="BfXzmcUI7B5nAFYZt8X8-27" value="Word2Vec Model" style="rounded=1;whiteSpace=wrap;html=1;fontSize=16;fillColor=#e1d5e7;strokeColor=#9673a6;" parent="1" vertex="1">
          <mxGeometry x="-380" y="-100" width="155" height="60" as="geometry" />
        </mxCell>
        <mxCell id="BfXzmcUI7B5nAFYZt8X8-28" value="" style="endArrow=classic;html=1;rounded=0;fontSize=12;startSize=8;endSize=8;curved=1;exitX=0.722;exitY=0.85;exitDx=0;exitDy=0;exitPerimeter=0;entryX=0.445;entryY=0.017;entryDx=0;entryDy=0;entryPerimeter=0;" parent="1" source="BfXzmcUI7B5nAFYZt8X8-7" target="BfXzmcUI7B5nAFYZt8X8-27" edge="1">
          <mxGeometry width="50" height="50" relative="1" as="geometry">
            <mxPoint x="-370" y="-240" as="sourcePoint" />
            <mxPoint x="-320" y="-290" as="targetPoint" />
          </mxGeometry>
        </mxCell>
        <mxCell id="BfXzmcUI7B5nAFYZt8X8-29" value="" style="endArrow=classic;html=1;rounded=0;fontSize=12;startSize=8;endSize=8;curved=1;exitX=1;exitY=0.5;exitDx=0;exitDy=0;entryX=0;entryY=0.5;entryDx=0;entryDy=0;" parent="1" source="BfXzmcUI7B5nAFYZt8X8-22" target="BfXzmcUI7B5nAFYZt8X8-27" edge="1">
          <mxGeometry width="50" height="50" relative="1" as="geometry">
            <mxPoint x="-370" y="-240" as="sourcePoint" />
            <mxPoint x="-320" y="-290" as="targetPoint" />
          </mxGeometry>
        </mxCell>
        <mxCell id="BfXzmcUI7B5nAFYZt8X8-30" value="加权" style="rounded=1;whiteSpace=wrap;html=1;fontSize=16;" parent="1" vertex="1">
          <mxGeometry x="-415" y="-150" width="90" height="30" as="geometry" />
        </mxCell>
        <mxCell id="BfXzmcUI7B5nAFYZt8X8-31" value="" style="endArrow=classic;html=1;rounded=0;fontSize=12;startSize=8;endSize=8;curved=1;exitX=0.1;exitY=0.5;exitDx=0;exitDy=0;exitPerimeter=0;" parent="1" source="BfXzmcUI7B5nAFYZt8X8-35" edge="1">
          <mxGeometry width="50" height="50" relative="1" as="geometry">
            <mxPoint x="-370" y="-240" as="sourcePoint" />
            <mxPoint y="-345" as="targetPoint" />
          </mxGeometry>
        </mxCell>
        <mxCell id="BfXzmcUI7B5nAFYZt8X8-36" value="" style="endArrow=classic;html=1;rounded=0;fontSize=12;startSize=8;endSize=8;curved=1;exitX=0.1;exitY=0.5;exitDx=0;exitDy=0;exitPerimeter=0;" parent="1" source="BfXzmcUI7B5nAFYZt8X8-25" target="BfXzmcUI7B5nAFYZt8X8-35" edge="1">
          <mxGeometry width="50" height="50" relative="1" as="geometry">
            <mxPoint x="-192" y="-345" as="sourcePoint" />
            <mxPoint y="-345" as="targetPoint" />
          </mxGeometry>
        </mxCell>
        <mxCell id="BfXzmcUI7B5nAFYZt8X8-35" value="Feature Matrix" style="rounded=0;whiteSpace=wrap;html=1;fontSize=16;fillColor=#d5e8d4;strokeColor=#82b366;" parent="1" vertex="1">
          <mxGeometry x="-120" y="-375" width="120" height="60" as="geometry" />
        </mxCell>
        <mxCell id="BfXzmcUI7B5nAFYZt8X8-38" value="异构图GNN" style="rounded=0;whiteSpace=wrap;html=1;fontSize=16;fillColor=#d5e8d4;strokeColor=#82b366;" parent="1" vertex="1">
          <mxGeometry x="50" y="-375" width="120" height="60" as="geometry" />
        </mxCell>
        <mxCell id="BfXzmcUI7B5nAFYZt8X8-39" value="" style="endArrow=classic;html=1;rounded=0;fontSize=12;startSize=8;endSize=8;curved=1;exitX=1;exitY=0.5;exitDx=0;exitDy=0;entryX=0;entryY=0.5;entryDx=0;entryDy=0;" parent="1" source="BfXzmcUI7B5nAFYZt8X8-35" target="BfXzmcUI7B5nAFYZt8X8-38" edge="1">
          <mxGeometry width="50" height="50" relative="1" as="geometry">
            <mxPoint x="190" y="-320" as="sourcePoint" />
            <mxPoint x="240" y="-370" as="targetPoint" />
          </mxGeometry>
        </mxCell>
        <mxCell id="BfXzmcUI7B5nAFYZt8X8-40" value="&lt;div&gt;Community Detection&lt;/div&gt;" style="rounded=0;whiteSpace=wrap;html=1;fontSize=16;fillColor=#d5e8d4;strokeColor=#82b366;" parent="1" vertex="1">
          <mxGeometry x="390" y="-380" width="160" height="60" as="geometry" />
        </mxCell>
        <mxCell id="BfXzmcUI7B5nAFYZt8X8-41" value="Self Expressive Module " style="rounded=0;whiteSpace=wrap;html=1;fontSize=16;fillColor=#d5e8d4;strokeColor=#82b366;" parent="1" vertex="1">
          <mxGeometry x="230" y="-480" width="120" height="60" as="geometry" />
        </mxCell>
        <mxCell id="BfXzmcUI7B5nAFYZt8X8-44" value="" style="edgeStyle=elbowEdgeStyle;elbow=horizontal;endArrow=classic;html=1;curved=0;rounded=0;endSize=8;startSize=8;fontSize=12;entryX=0;entryY=0.5;entryDx=0;entryDy=0;" parent="1" target="BfXzmcUI7B5nAFYZt8X8-41" edge="1">
          <mxGeometry width="50" height="50" relative="1" as="geometry">
            <mxPoint x="170" y="-360" as="sourcePoint" />
            <mxPoint x="230" y="-470" as="targetPoint" />
          </mxGeometry>
        </mxCell>
        <mxCell id="BfXzmcUI7B5nAFYZt8X8-45" value="" style="edgeStyle=elbowEdgeStyle;elbow=horizontal;endArrow=classic;html=1;curved=0;rounded=0;endSize=8;startSize=8;fontSize=12;entryX=0;entryY=0.5;entryDx=0;entryDy=0;exitX=1;exitY=0.5;exitDx=0;exitDy=0;" parent="1" edge="1">
          <mxGeometry width="50" height="50" relative="1" as="geometry">
            <mxPoint x="350" y="-460" as="sourcePoint" />
            <mxPoint x="390" y="-360" as="targetPoint" />
          </mxGeometry>
        </mxCell>
        <mxCell id="BfXzmcUI7B5nAFYZt8X8-46" value="" style="endArrow=classic;html=1;rounded=0;fontSize=12;startSize=8;endSize=8;curved=1;exitX=1;exitY=0.5;exitDx=0;exitDy=0;entryX=0;entryY=0.617;entryDx=0;entryDy=0;entryPerimeter=0;" parent="1" source="BfXzmcUI7B5nAFYZt8X8-38" target="BfXzmcUI7B5nAFYZt8X8-40" edge="1">
          <mxGeometry width="50" height="50" relative="1" as="geometry">
            <mxPoint x="190" y="-320" as="sourcePoint" />
            <mxPoint x="240" y="-370" as="targetPoint" />
          </mxGeometry>
        </mxCell>
        <mxCell id="BfXzmcUI7B5nAFYZt8X8-47" value="" style="endArrow=classic;html=1;rounded=0;fontSize=12;startSize=8;endSize=8;curved=1;exitX=-0.008;exitY=0.867;exitDx=0;exitDy=0;exitPerimeter=0;" parent="1" source="BfXzmcUI7B5nAFYZt8X8-40" edge="1">
          <mxGeometry width="50" height="50" relative="1" as="geometry">
            <mxPoint x="190" y="-320" as="sourcePoint" />
            <mxPoint x="170" y="-330" as="targetPoint" />
          </mxGeometry>
        </mxCell>
        <mxCell id="BfXzmcUI7B5nAFYZt8X8-48" style="edgeStyle=none;curved=1;rounded=0;orthogonalLoop=1;jettySize=auto;html=1;exitX=0;exitY=0.5;exitDx=0;exitDy=0;entryX=0;entryY=0.25;entryDx=0;entryDy=0;fontSize=12;startSize=8;endSize=8;" parent="1" source="BfXzmcUI7B5nAFYZt8X8-41" target="BfXzmcUI7B5nAFYZt8X8-41" edge="1">
          <mxGeometry relative="1" as="geometry" />
        </mxCell>
        <mxCell id="BfXzmcUI7B5nAFYZt8X8-52" value="" style="edgeStyle=segmentEdgeStyle;endArrow=classic;html=1;curved=0;rounded=0;endSize=8;startSize=8;fontSize=12;" parent="1" edge="1">
          <mxGeometry width="50" height="50" relative="1" as="geometry">
            <mxPoint x="-220" y="-70" as="sourcePoint" />
            <mxPoint x="-50" y="-310" as="targetPoint" />
          </mxGeometry>
        </mxCell>
      </root>
    </mxGraphModel>
  </diagram>
  <diagram id="FGAFwKz773aKPEM1jTUB" name="第 2 页">
    <mxGraphModel dx="2714" dy="1426" grid="1" gridSize="10" guides="1" tooltips="1" connect="1" arrows="1" fold="1" page="0" pageScale="1" pageWidth="4681" pageHeight="3300" math="0" shadow="0">
      <root>
        <mxCell id="0" />
        <mxCell id="1" parent="0" />
        <mxCell id="dUFneeM6tNNkBil8R-Nm-1" value="&lt;font style=&quot;font-size: 36px;&quot;&gt;单体架构&lt;/font&gt;" style="rounded=0;whiteSpace=wrap;html=1;fontSize=16;fillColor=#d5e8d4;strokeColor=#82b366;" vertex="1" parent="1">
          <mxGeometry x="-610" y="-140" width="60" height="280" as="geometry" />
        </mxCell>
        <mxCell id="dUFneeM6tNNkBil8R-Nm-2" value="&lt;font style=&quot;font-size: 30px;&quot;&gt;静态结构&lt;/font&gt;" style="rounded=1;whiteSpace=wrap;html=1;" vertex="1" parent="1">
          <mxGeometry x="-360" y="-160" width="180" height="60" as="geometry" />
        </mxCell>
        <mxCell id="Wv0EUKoF1K5zHABMzbqF-1" style="edgeStyle=none;curved=1;rounded=0;orthogonalLoop=1;jettySize=auto;html=1;exitX=0.5;exitY=0;exitDx=0;exitDy=0;entryX=0.5;entryY=1;entryDx=0;entryDy=0;fontSize=12;startSize=8;endSize=8;" edge="1" parent="1" source="dUFneeM6tNNkBil8R-Nm-3" target="dUFneeM6tNNkBil8R-Nm-4">
          <mxGeometry relative="1" as="geometry" />
        </mxCell>
        <mxCell id="dUFneeM6tNNkBil8R-Nm-3" value="&lt;div&gt;&lt;font style=&quot;font-size: 30px;&quot;&gt;方法级别&lt;/font&gt;&lt;/div&gt;&lt;div&gt;&lt;font style=&quot;font-size: 30px;&quot;&gt;执行轨迹&lt;/font&gt;&lt;/div&gt;" style="rounded=1;whiteSpace=wrap;html=1;" vertex="1" parent="1">
          <mxGeometry x="-360" y="27.41" width="190" height="70" as="geometry" />
        </mxCell>
        <mxCell id="dUFneeM6tNNkBil8R-Nm-4" value="&lt;div&gt;&lt;font style=&quot;font-size: 30px;&quot;&gt;类级别&lt;/font&gt;&lt;/div&gt;&lt;div&gt;&lt;font style=&quot;font-size: 30px;&quot;&gt;执行轨迹&lt;/font&gt;&lt;/div&gt;" style="rounded=1;whiteSpace=wrap;html=1;" vertex="1" parent="1">
          <mxGeometry x="-360" y="-70" width="190" height="70" as="geometry" />
        </mxCell>
        <mxCell id="dUFneeM6tNNkBil8R-Nm-7" value="&lt;font style=&quot;font-size: 21px;&quot;&gt;静态分析&lt;/font&gt;" style="html=1;shadow=0;dashed=0;align=center;verticalAlign=middle;shape=mxgraph.arrows2.arrow;dy=0.6;dx=40;notch=0;rotation=15;" vertex="1" parent="1">
          <mxGeometry x="-540" y="97.41" width="150" height="50" as="geometry" />
        </mxCell>
        <mxCell id="dUFneeM6tNNkBil8R-Nm-8" value="&lt;font style=&quot;font-size: 21px;&quot;&gt;动态分析&lt;/font&gt;" style="html=1;shadow=0;dashed=0;align=center;verticalAlign=middle;shape=mxgraph.arrows2.arrow;dy=0.6;dx=40;notch=0;rotation=0;" vertex="1" parent="1">
          <mxGeometry x="-540" y="-10" width="170" height="50" as="geometry" />
        </mxCell>
        <mxCell id="dUFneeM6tNNkBil8R-Nm-9" value="&lt;font style=&quot;font-size: 21px;&quot;&gt;静态分析&lt;/font&gt;" style="html=1;shadow=0;dashed=0;align=center;verticalAlign=middle;shape=mxgraph.arrows2.arrow;dy=0.6;dx=40;notch=0;rotation=-15;" vertex="1" parent="1">
          <mxGeometry x="-540" y="-130" width="170" height="50" as="geometry" />
        </mxCell>
        <mxCell id="dUFneeM6tNNkBil8R-Nm-12" style="edgeStyle=none;curved=1;rounded=0;orthogonalLoop=1;jettySize=auto;html=1;exitX=1;exitY=0.5;exitDx=0;exitDy=0;fontSize=12;startSize=8;endSize=8;" edge="1" parent="1" source="dUFneeM6tNNkBil8R-Nm-10" target="dUFneeM6tNNkBil8R-Nm-11">
          <mxGeometry relative="1" as="geometry" />
        </mxCell>
        <mxCell id="dUFneeM6tNNkBil8R-Nm-10" value="&lt;font style=&quot;font-size: 30px;&quot;&gt;类名&lt;/font&gt;" style="rounded=1;whiteSpace=wrap;html=1;" vertex="1" parent="1">
          <mxGeometry x="-390" y="120" width="120" height="60" as="geometry" />
        </mxCell>
        <mxCell id="dUFneeM6tNNkBil8R-Nm-11" value="&lt;font style=&quot;font-size: 30px;&quot;&gt;Word2Vec &lt;br&gt;&lt;/font&gt;" style="rounded=1;whiteSpace=wrap;html=1;" vertex="1" parent="1">
          <mxGeometry x="-245" y="120" width="170" height="60" as="geometry" />
        </mxCell>
        <mxCell id="dUFneeM6tNNkBil8R-Nm-13" value="`c`" style="ellipse;whiteSpace=wrap;html=1;aspect=fixed;" vertex="1" parent="1">
          <mxGeometry x="20" y="-100" width="40" height="40" as="geometry" />
        </mxCell>
        <mxCell id="3DZ1SyzfCtG7e4FlNWhi-1" value="" style="shape=curlyBracket;whiteSpace=wrap;html=1;rounded=1;flipH=1;labelPosition=right;verticalLabelPosition=middle;align=left;verticalAlign=middle;fontSize=16;size=0;" vertex="1" parent="1">
          <mxGeometry x="-170" y="-140" width="20" height="110" as="geometry" />
        </mxCell>
      </root>
    </mxGraphModel>
  </diagram>
</mxfile>
